<svg width="48" height="48" viewBox="0 0 48 48" fill="none" xmlns="http://www.w3.org/2000/svg">
<path fill-rule="evenodd" clip-rule="evenodd" d="M37.9112 10.0882C40.501 12.6818 40.6598 16.7877 38.3879 19.5672L38.4156 19.5949L20.6478 37.3964L10.2137 40.0156L8.9358 38.9312L7.98047 38.0525L10.6769 27.3355L28.4242 9.58824L28.4462 9.61025C31.2216 7.3352 35.3215 7.49451 37.9112 10.0882ZM30.3416 14.1188C29.7389 13.5151 29.7368 12.538 30.3345 11.9317C31.935 10.6168 34.302 10.7079 35.7967 12.2048C37.2916 13.702 37.3826 16.0734 36.0692 17.6767C35.4658 18.2759 34.4913 18.2747 33.8893 17.6718L30.3416 14.1188ZM25.6283 16.6264C26.4559 15.8008 27.7945 15.8022 28.6205 16.6294L31.388 19.4011C32.2131 20.2274 32.2157 21.5665 31.394 22.3961L19.6491 34.2529C19.3766 34.528 19.0343 34.723 18.6591 34.8169L13.8642 36.0174C12.7546 36.2952 11.7481 35.2885 12.0259 34.1755L13.2064 29.4471C13.2999 29.0726 13.4936 28.7307 13.7666 28.4584L25.6283 16.6264Z" fill="#008C56"/>
</svg>
